# xmcd
#
# Track frame offsets: 
#        150
#        17751
#        38904
#        57667
#        83792
#        111521
#        129364
#        148411
#        166260
#        194460
#
# Disc length: 2961 seconds
#
# Revision: 0
# Processed by: cddbd v1.5.2PL0 Copyright (c) Steve Scherf et al.
# Submitted via: ExactAudioCopy v1.0b3
#
DISCID=910b8f0a
DTITLE=Various Artist - 空想活劇・参
DYEAR=2011
DGENRE=Pop
TTITLE0=豚乙女 × 文倉十 - 欠伸
TTITLE1=あまね＋ビートまりお × GODTAIL - SPEED-HERO-RUN
TTITLE2=六弦アリス × カラス - オフィーリアは夢の中
TTITLE3=流歌 × みとせのりこ × 碧風羽 - 両腕の地平
TTITLE4=古川本舗 × 歌うキッチン × まりこ - ピルグリマ
TTITLE5=感傷ベクトル × 安倍吉俊 - ラストシーン
TTITLE6=DECO*27 × ef × 水瀬マユ - サイ
TTITLE7=sasakure.UK × そらこ × 西島大介 - ココロパステルギー
TTITLE8=onoken × *spiLa* × スオウ - LUX
TTITLE9=大嶋啓之 × 多田葵 × らいあん × 小川一水 - Smileより愛をこめて
EXTD=
EXTT0=
EXTT1=
EXTT2=
EXTT3=
EXTT4=
EXTT5=
EXTT6=
EXTT7=
EXTT8=
EXTT9=
PLAYORDER=
